<?xml version="1.0" encoding="UTF-8"?><!DOCTYPE svg PUBLIC "-//W3C//DTD SVG 1.1//EN" "http://www.w3.org/Graphics/SVG/1.1/DTD/svg11.dtd"><svg xmlns="http://www.w3.org/2000/svg" xmlns:xlink="http://www.w3.org/1999/xlink"><symbol id="03-twitter" viewBox="0 0 56.693 56.693">
<path d="M28.348,5.157c-13.6,0-24.625,11.027-24.625,24.625c0,13.6,11.025,24.623,24.625,24.623c13.6,0,24.623-11.023,24.623-24.623
	C52.971,16.184,41.947,5.157,28.348,5.157z M40.752,24.817c0.013,0.266,0.018,0.533,0.018,0.803c0,8.201-6.242,17.656-17.656,17.656
	c-3.504,0-6.767-1.027-9.513-2.787c0.486,0.057,0.979,0.086,1.48,0.086c2.908,0,5.584-0.992,7.707-2.656
	c-2.715-0.051-5.006-1.846-5.796-4.311c0.378,0.074,0.767,0.111,1.167,0.111c0.566,0,1.114-0.074,1.635-0.217
	c-2.84-0.57-4.979-3.08-4.979-6.084c0-0.027,0-0.053,0.001-0.08c0.836,0.465,1.793,0.744,2.811,0.777
	c-1.666-1.115-2.761-3.012-2.761-5.166c0-1.137,0.306-2.204,0.84-3.12c3.061,3.754,7.634,6.225,12.792,6.483
	c-0.106-0.453-0.161-0.928-0.161-1.414c0-3.426,2.778-6.205,6.206-6.205c1.785,0,3.397,0.754,4.529,1.959
	c1.414-0.277,2.742-0.795,3.941-1.506c-0.465,1.45-1.448,2.666-2.73,3.433c1.257-0.15,2.453-0.484,3.565-0.977
	C43.018,22.849,41.965,23.942,40.752,24.817z"/>
</symbol><symbol id="04-flickr" viewBox="0 0 56.693 56.693">
<path d="M28.347,5.157c-13.6,0-24.625,11.027-24.625,24.625c0,13.6,11.025,24.623,24.625,24.623c13.6,0,24.625-11.023,24.625-24.623
	C52.972,16.184,41.946,5.157,28.347,5.157z M18.904,37.411c-4.281,0-7.751-3.467-7.751-7.748c0-4.283,3.47-7.75,7.751-7.75
	c4.281,0,7.75,3.467,7.75,7.75C26.653,33.944,23.185,37.411,18.904,37.411z M38.351,37.411c-4.281,0-7.75-3.467-7.75-7.748
	c0-4.283,3.469-7.75,7.75-7.75c4.279,0,7.75,3.467,7.75,7.75C46.101,33.944,42.63,37.411,38.351,37.411z"/>
</symbol><symbol id="05-twitter" viewBox="0 0 56.693 56.693">
<path d="M28.347,5.157c-13.6,0-24.625,11.027-24.625,24.625c0,13.6,11.024,24.623,24.625,24.623
	c13.602,0,24.625-11.023,24.625-24.623C52.972,16.184,41.948,5.157,28.347,5.157z M34.966,44.126c-1.016,0-6.633-0.133-8.068-0.133
	c-1.434,0-8.912-2.332-8.912-10.559c0-1.465-0.001-2.938-0.005-4.404c-0.006-1.367-0.034-2.732-0.039-4.09
	c-0.001-0.396-0.003-0.793-0.005-1.189c-0.01-2.072-0.185-4.405,0.481-6.395c0.51-1.518,1.716-2.125,3.202-2.125
	c3.594,0,3.834,3.664,3.844,7.344h10.387c1.645,0,2.873,1.668,2.873,4.221c0,2.551-2.662,3.123-4.055,3.123h-9.32
	c-0.047,1.562-0.098,2.834-0.098,3.607c0,1.625,0.635,3.385,4.604,3.385h5.578c1.393,0,3.459,1.055,3.459,4.002
	C38.892,43.856,35.979,44.126,34.966,44.126z"/>
</symbol><symbol id="06-facebook" viewBox="0 0 56.693 56.693">
<path d="M28.347,5.157c-13.6,0-24.625,11.027-24.625,24.625c0,13.6,11.025,24.623,24.625,24.623c13.6,0,24.625-11.023,24.625-24.623
	C52.972,16.184,41.946,5.157,28.347,5.157z M34.864,29.679h-4.264c0,6.814,0,15.207,0,15.207h-6.32c0,0,0-8.307,0-15.207h-3.006
	V24.31h3.006v-3.479c0-2.49,1.182-6.377,6.379-6.377l4.68,0.018v5.215c0,0-2.846,0-3.398,0c-0.555,0-1.34,0.277-1.34,1.461v3.163
	h4.818L34.864,29.679z"/>
</symbol><symbol id="09-google" viewBox="0 0 56.6934 56.6934">
<path d="M28.4597,4.0154c-13.6006,0-24.625,11.0273-24.625,24.625c0,13.5996,11.0244,24.623,24.625,24.623
	c13.5996,0,24.625-11.0234,24.625-24.623C53.0847,15.0426,42.0593,4.0154,28.4597,4.0154z M42.6077,33.8793
	c-0.6971,2.4016-2.0137,4.6364-3.8595,6.3326c-1.7462,1.6122-3.9333,2.7168-6.2449,3.2488
	c-2.5577,0.5821-5.2626,0.5976-7.8036-0.084c-2.0137-0.5356-3.9131-1.4954-5.5425-2.7948
	c-1.7272-1.3727-3.1511-3.1237-4.1442-5.0933c-1.5282-3.0176-1.9982-6.5501-1.3239-9.8632
	c0.2681-1.3298,0.7144-2.6226,1.3256-3.8339c1.7558-3.5151,4.9224-6.2962,8.6412-7.5694c3.3-1.1421,6.9968-1.1165,10.2748,0.09
	c1.8207,0.6685,3.4871,1.726,4.9086,3.0414c-0.4755,0.5165-0.9914,0.9974-1.4823,1.5002c-0.936,0.9342-1.869,1.8719-2.8068,2.8043
	c-0.9276-0.8859-2.0602-1.5591-3.2887-1.9321c-1.4454-0.4373-3.0021-0.4975-4.4785-0.1823
	c-1.7242,0.3694-3.3245,1.2702-4.5554,2.5303c-0.9979,1.0104-1.7576,2.252-2.2139,3.5961c-0.6577,1.9071-0.653,4.0311-0.003,5.9399
	c0.6357,1.8767,1.8737,3.5443,3.496,4.684c1.0146,0.7155,2.1776,1.2231,3.396,1.4662c1.1981,0.2425,2.4391,0.2163,3.6402,0.0114
	c1.1934-0.2091,2.351-0.6488,3.3584-1.3262c1.6027-1.0706,2.7328-2.8097,3.054-4.7114c-2.7704-0.0012-5.5414-0.0006-8.3124,0
	c-0.0035-1.9839-0.0005-3.9685-0.0012-5.953c4.7847-0.0006,9.5694-0.0018,14.3541,0.0005
	C43.4728,28.4631,43.3679,31.2596,42.6077,33.8793z"/>
</symbol><symbol id="52-yelp" viewBox="-91 49.217 56.693 56.693">
<path fill="#231F20" d="M-62.653,54.3363c-13.5996,0-24.625,11.0234-24.625,24.623c0,13.5997,11.0254,24.625,24.625,24.625
	c13.5986,0,24.624-11.0253,24.624-24.625C-38.029,65.3597-49.0544,54.3363-62.653,54.3363z M-74.0924,83.7351
	c-0.5219-0.0181-0.9963-0.3329-1.2642-0.843c-0.167-0.3179-0.2905-0.8262-0.367-1.5118c-0.1932-1.8694,0.0351-4.6715,0.6296-5.6271
	c0.3148-0.4958,0.7966-0.7702,1.3245-0.7459c0.3257,0.0037,0.353,0.0043,6.0107,2.3386l-0.0022,0.005
	c0.149,0.0529,0.5207,0.2047,1.5759,0.6345c0.6849,0.2563,1.1213,0.9749,1.0778,1.7849c-0.047,0.7944-0.5208,1.4203-1.2069,1.5958
	c-0.1322,0.0442-0.5764,0.186-2.221,0.7111c-4.7484,1.5255-5.1882,1.6611-5.4738,1.6611
	C-74.037,83.7383-74.0635,83.737-74.0924,83.7351z M-62.3398,86.7879c-0.0156,5.4636-0.0239,5.4884-0.1291,5.7958
	c-0.1907,0.5089-0.614,0.8417-1.1951,0.9475c-0.1014,0.0174-0.2174,0.0255-0.3453,0.0255c-1.6884,0-5.489-1.4464-6.3668-2.4891
	c-0.2199-0.2651-0.3503-0.5618-0.3782-0.8598c-0.0234-0.2053,0.0031-0.4168,0.079-0.6227c0.1067-0.3086,0.1207-0.349,4.0806-4.9963
	l0.0951-0.1119c0.2644-0.3123,1.0048-1.1914,1.0048-1.1914c0.4551-0.5699,1.271-0.7621,2.0266-0.4703
	c0.7385,0.2843,1.1867,0.9282,1.1416,1.64C-62.3277,84.5234-62.3398,86.7879-62.3398,86.7879z M-63.4718,76.0768
	c-0.1608,0.051-0.3201,0.0759-0.4778,0.0759c-0.7083,0-1.3818-0.5095-2.007-1.5223c-0.7034-1.1068-6.8957-10.8511-7.0605-11.1902
	c-0.15-0.55,0.0121-1.0906,0.4116-1.5062c1.0983-1.1335,6.7877-2.7336,8.3445-2.3467c0.5842,0.1456,1.0026,0.5344,1.1484,1.0663
	l0.0066,0.0298c0.0871,0.5027,0.7636,10.5593,0.8616,12.8109C-62.1743,74.9358-62.5874,75.8048-63.4718,76.0768z M-60.3023,76.1109
	c0.0613-0.079,1.3839-1.8807,1.3839-1.8807c3.1754-4.3431,3.241-4.4296,3.5129-4.6069c0.4454-0.3005,0.9873-0.3247,1.5211-0.0659
	c1.2931,0.6302,3.8239,4.3648,3.9828,5.8766l0.0028,0.0249l-0.0009,0.0585c0.0349,0.5693-0.1876,1.0582-0.6274,1.3575
	c-0.2722,0.1767-0.3278,0.2128-6.243,1.6455c0,0-1.6656,0.5128-2.4537,0.4025c-0.4336-0.1082-0.8364-0.3944-1.1133-0.8187
	C-60.7689,77.4423-60.7552,76.6603-60.3023,76.1109z M-49.7196,85.3228c-0.2119,1.4551-3.063,5.0778-4.4218,5.6203
	c-0.2159,0.0865-0.4293,0.1288-0.6346,0.1288c-0.3163,0-0.6131-0.1008-0.8685-0.3011c-0.2634-0.2059-0.3962-0.3969-3.4913-5.4243
	l-0.8847-1.4396c-0.4059-0.6184-0.3381-1.4583,0.1742-2.0829c0.4962-0.611,1.2458-0.8392,1.909-0.5848
	c0.0943,0.0361,1.374,0.4591,2.212,0.7354c5.2013,1.7096,5.2222,1.7252,5.4763,1.9149
	C-49.8303,84.2241-49.6403,84.7442-49.7196,85.3228z"/>
</symbol><symbol id="down" viewBox="0 0 24 24">
    <path d="M7.41 7.84L12 12.42l4.59-4.58L18 9.25l-6 6-6-6z"/>
    <path d="M0-.75h24v24H0z" fill="none"/>
</symbol><symbol id="ic_location_on_black_24px" viewBox="0 0 24 24">
    <path d="M12 2C8.13 2 5 5.13 5 9c0 5.25 7 13 7 13s7-7.75 7-13c0-3.87-3.13-7-7-7zm0 9.5c-1.38 0-2.5-1.12-2.5-2.5s1.12-2.5 2.5-2.5 2.5 1.12 2.5 2.5-1.12 2.5-2.5 2.5z"/>
    <path d="M0 0h24v24H0z" fill="none"/>
</symbol><symbol id="phone" viewBox="0 0 24 24">
    <path d="M0 0h24v24H0z" fill="none"/>
    <path d="M6.62 10.79c1.44 2.83 3.76 5.14 6.59 6.59l2.2-2.2c.27-.27.67-.36 1.02-.24 1.12.37 2.33.57 3.57.57.55 0 1 .45 1 1V20c0 .55-.45 1-1 1-9.39 0-17-7.61-17-17 0-.55.45-1 1-1h3.5c.55 0 1 .45 1 1 0 1.25.2 2.45.57 3.57.11.35.03.74-.25 1.02l-2.2 2.2z"/>
</symbol><symbol id="place" viewBox="0 0 24 24">
    <path d="M12 2C8.13 2 5 5.13 5 9c0 5.25 7 13 7 13s7-7.75 7-13c0-3.87-3.13-7-7-7zm0 9.5c-1.38 0-2.5-1.12-2.5-2.5s1.12-2.5 2.5-2.5 2.5 1.12 2.5 2.5-1.12 2.5-2.5 2.5z"/>
    <path d="M0 0h24v24H0z" fill="none"/>
</symbol></svg>